<svg xmlns="http://www.w3.org/2000/svg" viewBox="6 96 600 600" enable-background="new 6 96 600 600"><path fill="#fff" d="M306 693.5C141.9 693.5 8.5 560 8.5 396S141.9 98.5 306 98.5 603.5 231.9 603.5 396 470.1 693.5 306 693.5zm251.2-256.7c-8.5-2.5-78.6-23.8-158.5-11 33.1 91.4 46.8 165.8 49.3 181.5 57.3-38.7 97.7-99.9 109.2-170.5zM405.4 630.6c-3.8-22.1-18.7-99.9-54.4-192.9-.4 0-1.3.4-1.7.4-143.2 50.1-195.1 149.6-199.3 159 42.9 33.6 97.3 53.5 156 53.5 35.3 0 68.8-7.2 99.4-20zm-288.1-64.2c5.9-9.8 75.6-125.4 206.5-167.9 3.4-1.3 6.8-2.1 10.2-3-6.4-14.4-13.2-28.9-20.8-43.4-127.1 37.8-250.3 36.5-261.4 36.1v7.6c0 66.1 24.7 125.6 65.5 170.6zM56.9 344.2c11.5 0 116 .4 235-31-42.1-74.8-87.5-137.7-94.4-147.1-70.9 33.6-124 99.4-140.6 178.1zm189.6-195.1c7.2 9.4 53.1 72.2 94.8 148.8 90.5-34 128.8-85.4 133.5-91.8-45-40-104.1-64.2-168.7-64.2-20.5.4-40.5 2.5-59.6 7.2zm256.3 86.7c-5.5 7.2-48 62-142 100.3 6 11.9 11.5 24.2 17 37 1.7 4.2 3.8 8.9 5.5 13.2 84.6-10.6 168.7 6.4 177.2 8.1-.8-60.4-22.4-115.7-57.7-158.6z"/></svg>