<svg xmlns="http://www.w3.org/2000/svg" viewBox="0 0 600 600" enable-background="new 0 0 600 600"><path fill="#fff" d="M85.4 10.2h429.2c40.4 0 75.2 32.3 75.2 75.2v429.2c0 40.4-32.3 75.2-75.2 75.2H85.4c-40.4 0-75.2-32.3-75.2-75.2V85.4C10.1 45 45 10.2 85.4 10.2zm348.9 64.6c-13.6 0-26.8 10.6-26.8 26.8v61.6c0 13.6 10.6 26.8 26.8 26.8h64.2c13.6 0 26.8-10.6 26.8-26.8v-61.6c0-13.6-10.6-26.8-26.8-26.8h-64.2zm90.9 179.7h-51c5.5 16.1 8.1 32.3 8.1 51 0 96.5-80.3 174.2-179.8 174.2s-179.8-77.8-179.8-174.2c0-16.1 2.6-34.9 8.1-51H77.3v243.9c0 13.6 10.6 24.2 24.2 24.2H504c13.6 0 24.2-10.6 24.2-24.2l-3-243.9zM300 187.4c-64.2 0-115.2 51-115.2 112.6s51 112.6 115.2 112.6 115.2-51 115.2-112.6-51-112.6-115.2-112.6z"/></svg>