<svg xmlns="http://www.w3.org/2000/svg" viewBox="0 0 600 600" enable-background="new 0 0 600 600"><path fill="#fff" d="M549.3 7.3H50.5C26.7 7.3 7.3 26.2 7.3 49.5v500.9c0 23.3 19.4 42.2 43.2 42.2h498.8c23.9 0 43.4-18.9 43.4-42.2V49.5c0-23.3-19.5-42.2-43.4-42.2zM180.9 506.1h-87V226.8h87v279.3zm-43.5-317.5c-27.9 0-50.4-22.6-50.4-50.3 0-27.8 22.5-50.3 50.4-50.3 27.8 0 50.4 22.6 50.4 50.3 0 27.7-22.6 50.3-50.4 50.3zm368.8 317.5h-86.8V370.3c0-32.4-.6-74.1-45.1-74.1-45.2 0-52.1 35.3-52.1 71.7v138.2h-86.8V226.8h83.3V265h1.2c11.6-22 39.9-45.1 82.2-45.1 87.9 0 104.2 57.8 104.2 133.1v153.1z"/></svg>