<svg xmlns="http://www.w3.org/2000/svg" viewBox="0 0 600 600" enable-background="new 0 0 600 600"><path fill="#fff" d="M592.4 116.2c-22 9.7-44 17-68.1 19.5 24.5-14.9 44-38.9 51.1-66-22 14.9-48.6 24.5-75.9 29.2-22-22-53.8-36.4-87.7-36.4-66 0-119.4 53.8-119.4 119.4 0 9.7 0 19.5 2.5 26.7-99.9-5.1-188-51.1-246.4-124.4-9.7 16.8-16.8 38.8-16.8 60.7 0 41.4 22 77.8 53.8 99.9-19.5 0-38.9-5.1-53.8-14.9v2.6c0 58.4 41.4 104.9 95.2 117.3-9.7 2.6-19.5 5.1-31.8 5.1-7.2 0-14.9 0-22-2.5 14.9 46.1 58.4 83 112.1 83-41.4 31.8-92.7 51.1-148.6 51.1-9.7 0-19.5 0-29.2-2.6 53.8 34.3 114.8 53.8 182.9 53.8 219.2 0 339.1-180.4 339.1-339.1v-14.9c26.6-21 46-42.9 63-67.5z"/></svg>