<svg xmlns="http://www.w3.org/2000/svg" width="508" height="713.965" viewBox="0 47.108 508 713.965" enable-background="new 0 47.108 508 713.965"><path fill="#E41B45" d="M17.113 54.607V595.71L254.26 748.533l236.627-152.82V54.606z"/><g fill="#fff"><path d="M354.41 574.436v-89.254c0-2.854.52-5.968.52-9.34 0-2.855 0-6.487-.52-9.342V172.274h-85.36v21.275h64.085v210.42c-23.608-36.062-64.604-60.192-110.79-60.192-72.905 0-132.06 59.155-132.06 132.063s59.155 132.065 132.06 132.065c46.444 0 87.182-24.13 110.79-60.194v47.482h85.362v-20.76l-64.086.004zm-132.323 12.972c-60.974 0-110.79-49.816-110.79-111.05 0-61.232 49.816-110.788 110.79-110.788 58.638 0 106.378 45.403 110.79 103.006v16.346c-4.152 57.08-51.894 102.486-110.79 102.486zM222.087 395.15c-44.887 0-81.21 36.583-81.21 81.21s36.583 81.21 81.21 81.21c30.097 0 56.303-16.347 70.572-40.993h-28.022c-10.896 11.416-25.687 18.162-42.292 18.162-16.346 0-30.615-6.487-41.513-17.126-7.784-7.783-13.75-18.162-16.347-30.1H303.04V476.1c.517-44.626-36.067-80.95-80.953-80.95zm-57.082 69.793c2.335-11.937 7.784-22.056 16.347-30.1 10.896-10.378 25.166-17.124 41.515-17.124 16.346 0 30.616 6.485 41.513 17.123 7.784 7.784 13.752 18.163 16.347 30.1H165.005z"/></g></svg>