<svg xmlns="http://www.w3.org/2000/svg" width="143.413" height="192.768" viewBox="138.587 0 143.413 192.768" enable-background="new 138.587 0 143.413 192.768"><g fill="#E31C45"><path d="M253.294 172.944V6.207h-36.197V16.28h26.12v84.56c-10.135-14.34-26.833-23.73-45.69-23.73-30.845 0-55.937 25.09-55.937 55.935 0 30.843 25.094 55.94 55.938 55.94 18.854 0 35.555-9.396 45.688-23.73v17.764h36.194v-10.075h-26.116zm-55.763 5.504c-25.035 0-45.4-20.365-45.4-45.406 0-25.035 20.365-45.4 45.4-45.4 25.034 0 45.397 20.366 45.397 45.4 0 25.04-20.365 45.406-45.396 45.406zM197.562 99.217c-18.69.003-33.84 15.143-33.85 33.828.01 18.687 15.137 33.965 33.824 33.976 12.545 0 23.495-6.723 29.328-16.827H215.11c-4.437 4.207-10.664 7.367-17.584 7.367-6.745-.007-12.81-2.903-17.23-7.315-3.357-3.366-5.73-7.63-6.678-12.685h57.79v-4.516c.004-18.685-15.165-33.824-33.846-33.827zm-23.943 29.078c.944-5.05 3.32-9.132 6.678-12.49 4.422-4.412 10.486-7.125 17.23-7.13 6.74.004 12.803 2.713 17.227 7.127 3.354 3.36 5.73 7.442 6.68 12.493H173.62z"/></g></svg>